# xmcd
#
# Track frame offsets:
#  150
#  20941
#  41380
#  84214
#  111363
#  151770
#  171772
#
# Disc length: 2880 seconds
#
# Revision: 0
# Processed by: cddbd v1.5.1PL0 Copyright (c) Steve Scherf et al.
# Submitted via: AltoMP3_Maker 3.0
#
DISCID=4a0b3e07
DTITLE=Rockin' Chair Blues Band and Two Bags Bluesman - Watch Out!
DYEAR=1900
DGENRE=
TTITLE0=C-But Rock
TTITLE1=Born With A Broken Heart
TTITLE2=Laundromat Blues
TTITLE3=Big Leggend Woman
TTITLE4=For Memphis
TTITLE5=Home In The Blues
TTITLE6=Early In The Morning
EXTD=
EXTT0=
EXTT1=
EXTT2=
EXTT3=
EXTT4=
EXTT5=
EXTT6=
PLAYORDER=
